<svg width="1136" height="120" viewBox="0 0 1136 120" fill="none" xmlns="http://www.w3.org/2000/svg">
<rect opacity="0.8" width="1136" height="120" rx="10" fill="url(#paint0_linear_537_7)"/>
<path d="M81.992 49V32.2H85.208L95.12 44.296H93.56V32.2H97.4V49H94.208L84.272 36.904H85.832V49H81.992ZM107.519 49.192C106.047 49.192 104.751 48.904 103.631 48.328C102.527 47.752 101.671 46.968 101.063 45.976C100.455 44.968 100.151 43.824 100.151 42.544C100.151 41.248 100.447 40.104 101.039 39.112C101.647 38.104 102.471 37.32 103.511 36.76C104.551 36.184 105.727 35.896 107.039 35.896C108.303 35.896 109.439 36.168 110.447 36.712C111.471 37.24 112.279 38.008 112.871 39.016C113.463 40.008 113.759 41.2 113.759 42.592C113.759 42.736 113.751 42.904 113.735 43.096C113.719 43.272 113.703 43.44 113.687 43.6H103.199V41.416H111.719L110.279 42.064C110.279 41.392 110.143 40.808 109.871 40.312C109.599 39.816 109.223 39.432 108.743 39.16C108.263 38.872 107.703 38.728 107.063 38.728C106.423 38.728 105.855 38.872 105.359 39.16C104.879 39.432 104.503 39.824 104.231 40.336C103.959 40.832 103.823 41.424 103.823 42.112V42.688C103.823 43.392 103.975 44.016 104.279 44.56C104.599 45.088 105.039 45.496 105.599 45.784C106.175 46.056 106.847 46.192 107.615 46.192C108.303 46.192 108.903 46.088 109.415 45.88C109.943 45.672 110.423 45.36 110.855 44.944L112.847 47.104C112.255 47.776 111.511 48.296 110.615 48.664C109.719 49.016 108.687 49.192 107.519 49.192ZM102.143 34.432L105.335 31.696H108.599L111.791 34.432H109.031L105.791 32.272H108.143L104.903 34.432H102.143ZM109.847 32.128L112.511 29.224H116.327L112.559 32.128H109.847ZM121.699 49.192C120.627 49.192 119.667 48.984 118.819 48.568C117.987 48.152 117.339 47.52 116.875 46.672C116.411 45.808 116.179 44.712 116.179 43.384V36.088H119.923V42.832C119.923 43.904 120.147 44.696 120.595 45.208C121.059 45.704 121.707 45.952 122.539 45.952C123.115 45.952 123.627 45.832 124.075 45.592C124.523 45.336 124.875 44.952 125.131 44.44C125.387 43.912 125.515 43.256 125.515 42.472V36.088H129.259V49H125.707V45.448L126.355 46.48C125.923 47.376 125.283 48.056 124.435 48.52C123.603 48.968 122.691 49.192 121.699 49.192ZM147.157 49.192C146.021 49.192 145.045 48.952 144.229 48.472C143.413 47.992 142.789 47.264 142.357 46.288C141.925 45.296 141.709 44.048 141.709 42.544C141.709 41.024 141.933 39.776 142.381 38.8C142.845 37.824 143.485 37.096 144.301 36.616C145.117 36.136 146.069 35.896 147.157 35.896C148.373 35.896 149.461 36.168 150.421 36.712C151.397 37.256 152.165 38.024 152.725 39.016C153.301 40.008 153.589 41.184 153.589 42.544C153.589 43.888 153.301 45.056 152.725 46.048C152.165 47.04 151.397 47.816 150.421 48.376C149.461 48.92 148.373 49.192 147.157 49.192ZM139.525 49V31.192H143.269V38.704L143.029 42.52L143.101 46.36V49H139.525ZM146.509 46.12C147.133 46.12 147.685 45.976 148.165 45.688C148.661 45.4 149.053 44.992 149.341 44.464C149.645 43.92 149.797 43.28 149.797 42.544C149.797 41.792 149.645 41.152 149.341 40.624C149.053 40.096 148.661 39.688 148.165 39.4C147.685 39.112 147.133 38.968 146.509 38.968C145.885 38.968 145.325 39.112 144.829 39.4C144.333 39.688 143.941 40.096 143.653 40.624C143.365 41.152 143.221 41.792 143.221 42.544C143.221 43.28 143.365 43.92 143.653 44.464C143.941 44.992 144.333 45.4 144.829 45.688C145.325 45.976 145.885 46.12 146.509 46.12ZM163.804 49V46.48L163.564 45.928V41.416C163.564 40.616 163.316 39.992 162.82 39.544C162.34 39.096 161.596 38.872 160.588 38.872C159.9 38.872 159.22 38.984 158.548 39.208C157.892 39.416 157.332 39.704 156.868 40.072L155.524 37.456C156.228 36.96 157.076 36.576 158.068 36.304C159.06 36.032 160.068 35.896 161.092 35.896C163.06 35.896 164.588 36.36 165.676 37.288C166.764 38.216 167.308 39.664 167.308 41.632V49H163.804ZM159.868 49.192C158.86 49.192 157.996 49.024 157.276 48.688C156.556 48.336 156.004 47.864 155.62 47.272C155.236 46.68 155.044 46.016 155.044 45.28C155.044 44.512 155.228 43.84 155.596 43.264C155.98 42.688 156.58 42.24 157.396 41.92C158.212 41.584 159.276 41.416 160.588 41.416H164.02V43.6H160.996C160.116 43.6 159.508 43.744 159.172 44.032C158.852 44.32 158.692 44.68 158.692 45.112C158.692 45.592 158.876 45.976 159.244 46.264C159.628 46.536 160.148 46.672 160.804 46.672C161.428 46.672 161.988 46.528 162.484 46.24C162.98 45.936 163.34 45.496 163.564 44.92L164.14 46.648C163.868 47.48 163.372 48.112 162.652 48.544C161.932 48.976 161.004 49.192 159.868 49.192ZM161.188 54.04C160.724 54.04 160.332 53.896 160.012 53.608C159.692 53.32 159.532 52.928 159.532 52.432C159.532 51.936 159.692 51.528 160.012 51.208C160.332 50.904 160.724 50.752 161.188 50.752C161.652 50.752 162.044 50.904 162.364 51.208C162.684 51.528 162.844 51.936 162.844 52.432C162.844 52.928 162.684 53.32 162.364 53.608C162.044 53.896 161.652 54.04 161.188 54.04ZM178.545 35.896C179.569 35.896 180.481 36.104 181.281 36.52C182.097 36.92 182.737 37.544 183.201 38.392C183.665 39.224 183.897 40.296 183.897 41.608V49H180.153V42.184C180.153 41.144 179.921 40.376 179.457 39.88C179.009 39.384 178.369 39.136 177.537 39.136C176.945 39.136 176.409 39.264 175.929 39.52C175.465 39.76 175.097 40.136 174.825 40.648C174.569 41.16 174.441 41.816 174.441 42.616V49H170.697V36.088H174.273V39.664L173.601 38.584C174.065 37.72 174.729 37.056 175.593 36.592C176.457 36.128 177.441 35.896 178.545 35.896ZM200.327 49.192C198.935 49.192 197.695 48.912 196.607 48.352C195.519 47.776 194.663 46.984 194.039 45.976C193.431 44.968 193.127 43.824 193.127 42.544C193.127 41.248 193.431 40.104 194.039 39.112C194.663 38.104 195.519 37.32 196.607 36.76C197.695 36.184 198.935 35.896 200.327 35.896C201.687 35.896 202.871 36.184 203.879 36.76C204.887 37.32 205.631 38.128 206.111 39.184L203.207 40.744C202.871 40.136 202.447 39.688 201.935 39.4C201.439 39.112 200.895 38.968 200.303 38.968C199.663 38.968 199.087 39.112 198.575 39.4C198.063 39.688 197.655 40.096 197.351 40.624C197.063 41.152 196.919 41.792 196.919 42.544C196.919 43.296 197.063 43.936 197.351 44.464C197.655 44.992 198.063 45.4 198.575 45.688C199.087 45.976 199.663 46.12 200.303 46.12C200.895 46.12 201.439 45.984 201.935 45.712C202.447 45.424 202.871 44.968 203.207 44.344L206.111 45.928C205.631 46.968 204.887 47.776 203.879 48.352C202.871 48.912 201.687 49.192 200.327 49.192ZM214.247 49.192C212.871 49.192 211.647 48.904 210.575 48.328C209.519 47.752 208.679 46.968 208.055 45.976C207.447 44.968 207.143 43.824 207.143 42.544C207.143 41.248 207.447 40.104 208.055 39.112C208.679 38.104 209.519 37.32 210.575 36.76C211.647 36.184 212.871 35.896 214.247 35.896C215.607 35.896 216.823 36.184 217.895 36.76C218.967 37.32 219.807 38.096 220.415 39.088C221.023 40.08 221.327 41.232 221.327 42.544C221.327 43.824 221.023 44.968 220.415 45.976C219.807 46.968 218.967 47.752 217.895 48.328C216.823 48.904 215.607 49.192 214.247 49.192ZM214.247 46.12C214.871 46.12 215.431 45.976 215.927 45.688C216.423 45.4 216.815 44.992 217.103 44.464C217.391 43.92 217.535 43.28 217.535 42.544C217.535 41.792 217.391 41.152 217.103 40.624C216.815 40.096 216.423 39.688 215.927 39.4C215.431 39.112 214.871 38.968 214.247 38.968C213.623 38.968 213.063 39.112 212.567 39.4C212.071 39.688 211.671 40.096 211.367 40.624C211.079 41.152 210.935 41.792 210.935 42.544C210.935 43.28 211.079 43.92 211.367 44.464C211.671 44.992 212.071 45.4 212.567 45.688C213.063 45.976 213.623 46.12 214.247 46.12ZM212.015 34.432L215.255 30.976H219.287L214.943 34.432H212.015ZM238.258 49.192C237.122 49.192 236.146 48.952 235.33 48.472C234.514 47.992 233.89 47.264 233.458 46.288C233.026 45.296 232.81 44.048 232.81 42.544C232.81 41.024 233.034 39.776 233.482 38.8C233.946 37.824 234.586 37.096 235.402 36.616C236.218 36.136 237.17 35.896 238.258 35.896C239.474 35.896 240.562 36.168 241.522 36.712C242.498 37.256 243.266 38.024 243.826 39.016C244.402 40.008 244.69 41.184 244.69 42.544C244.69 43.888 244.402 45.056 243.826 46.048C243.266 47.04 242.498 47.816 241.522 48.376C240.562 48.92 239.474 49.192 238.258 49.192ZM230.626 49V31.192H234.37V38.704L234.13 42.52L234.202 46.36V49H230.626ZM237.61 46.12C238.234 46.12 238.786 45.976 239.266 45.688C239.762 45.4 240.154 44.992 240.442 44.464C240.746 43.92 240.898 43.28 240.898 42.544C240.898 41.792 240.746 41.152 240.442 40.624C240.154 40.096 239.762 39.688 239.266 39.4C238.786 39.112 238.234 38.968 237.61 38.968C236.986 38.968 236.426 39.112 235.93 39.4C235.434 39.688 235.042 40.096 234.754 40.624C234.466 41.152 234.322 41.792 234.322 42.544C234.322 43.28 234.466 43.92 234.754 44.464C235.042 44.992 235.434 45.4 235.93 45.688C236.426 45.976 236.986 46.12 237.61 46.12ZM254.906 49V46.48L254.666 45.928V41.416C254.666 40.616 254.418 39.992 253.922 39.544C253.442 39.096 252.698 38.872 251.69 38.872C251.002 38.872 250.322 38.984 249.65 39.208C248.994 39.416 248.434 39.704 247.97 40.072L246.626 37.456C247.33 36.96 248.178 36.576 249.17 36.304C250.162 36.032 251.17 35.896 252.194 35.896C254.162 35.896 255.69 36.36 256.778 37.288C257.866 38.216 258.41 39.664 258.41 41.632V49H254.906ZM250.97 49.192C249.962 49.192 249.098 49.024 248.378 48.688C247.658 48.336 247.106 47.864 246.722 47.272C246.338 46.68 246.146 46.016 246.146 45.28C246.146 44.512 246.33 43.84 246.698 43.264C247.082 42.688 247.682 42.24 248.498 41.92C249.314 41.584 250.378 41.416 251.69 41.416H255.122V43.6H252.098C251.218 43.6 250.61 43.744 250.274 44.032C249.954 44.32 249.794 44.68 249.794 45.112C249.794 45.592 249.978 45.976 250.346 46.264C250.73 46.536 251.25 46.672 251.906 46.672C252.53 46.672 253.09 46.528 253.586 46.24C254.082 45.936 254.442 45.496 254.666 44.92L255.242 46.648C254.97 47.48 254.474 48.112 253.754 48.544C253.034 48.976 252.106 49.192 250.97 49.192ZM247.754 34.432L250.946 31.696H254.21L257.402 34.432H254.642L251.402 32.272H253.754L250.514 34.432H247.754ZM255.458 32.128L258.122 29.224H261.938L258.17 32.128H255.458ZM267.078 49.192C265.558 49.192 264.374 48.808 263.526 48.04C262.678 47.256 262.254 46.096 262.254 44.56V33.232H265.998V44.512C265.998 45.056 266.142 45.48 266.43 45.784C266.718 46.072 267.11 46.216 267.606 46.216C268.198 46.216 268.702 46.056 269.118 45.736L270.126 48.376C269.742 48.648 269.278 48.856 268.734 49C268.206 49.128 267.654 49.192 267.078 49.192ZM260.262 39.256V36.376H269.214V39.256H260.262ZM282.121 46.36L282.217 41.8L288.241 36.088H292.705L286.921 41.968L284.977 43.552L282.121 46.36ZM279.025 49V31.192H282.769V49H279.025ZM288.649 49L284.281 43.576L286.633 40.672L293.185 49H288.649ZM294.798 49V36.088H298.542V49H294.798ZM295.926 34.432L291.582 30.976H295.614L298.854 34.432H295.926ZM315.054 49.192C313.662 49.192 312.422 48.912 311.334 48.352C310.246 47.776 309.39 46.984 308.766 45.976C308.158 44.968 307.854 43.824 307.854 42.544C307.854 41.248 308.158 40.104 308.766 39.112C309.39 38.104 310.246 37.32 311.334 36.76C312.422 36.184 313.662 35.896 315.054 35.896C316.414 35.896 317.598 36.184 318.606 36.76C319.614 37.32 320.358 38.128 320.838 39.184L317.934 40.744C317.598 40.136 317.174 39.688 316.662 39.4C316.166 39.112 315.622 38.968 315.03 38.968C314.39 38.968 313.814 39.112 313.302 39.4C312.79 39.688 312.382 40.096 312.078 40.624C311.79 41.152 311.646 41.792 311.646 42.544C311.646 43.296 311.79 43.936 312.078 44.464C312.382 44.992 312.79 45.4 313.302 45.688C313.814 45.976 314.39 46.12 315.03 46.12C315.622 46.12 316.166 45.984 316.662 45.712C317.174 45.424 317.598 44.968 317.934 44.344L320.838 45.928C320.358 46.968 319.614 47.776 318.606 48.352C317.598 48.912 316.414 49.192 315.054 49.192ZM330.914 49V46.48L330.674 45.928V41.416C330.674 40.616 330.426 39.992 329.93 39.544C329.45 39.096 328.706 38.872 327.698 38.872C327.01 38.872 326.33 38.984 325.658 39.208C325.002 39.416 324.442 39.704 323.978 40.072L322.634 37.456C323.338 36.96 324.186 36.576 325.178 36.304C326.17 36.032 327.178 35.896 328.202 35.896C330.17 35.896 331.698 36.36 332.786 37.288C333.874 38.216 334.418 39.664 334.418 41.632V49H330.914ZM326.978 49.192C325.97 49.192 325.106 49.024 324.386 48.688C323.666 48.336 323.114 47.864 322.73 47.272C322.346 46.68 322.154 46.016 322.154 45.28C322.154 44.512 322.338 43.84 322.706 43.264C323.09 42.688 323.69 42.24 324.506 41.92C325.322 41.584 326.386 41.416 327.698 41.416H331.13V43.6H328.106C327.226 43.6 326.618 43.744 326.282 44.032C325.962 44.32 325.802 44.68 325.802 45.112C325.802 45.592 325.986 45.976 326.354 46.264C326.738 46.536 327.258 46.672 327.914 46.672C328.538 46.672 329.098 46.528 329.594 46.24C330.09 45.936 330.45 45.496 330.674 44.92L331.25 46.648C330.978 47.48 330.482 48.112 329.762 48.544C329.042 48.976 328.114 49.192 326.978 49.192ZM323.762 34.432L326.93 30.976H330.242L333.41 34.432H330.674L327.362 31.552H329.81L326.498 34.432H323.762ZM343.254 49.192C342.182 49.192 341.222 48.984 340.374 48.568C339.542 48.152 338.894 47.52 338.43 46.672C337.966 45.808 337.734 44.712 337.734 43.384V36.088H341.478V42.832C341.478 43.904 341.702 44.696 342.15 45.208C342.614 45.704 343.262 45.952 344.094 45.952C344.67 45.952 345.182 45.832 345.63 45.592C346.078 45.336 346.43 44.952 346.686 44.44C346.942 43.912 347.07 43.256 347.07 42.472V36.088H350.814V49H347.262V45.448L347.91 46.48C347.478 47.376 346.838 48.056 345.99 48.52C345.158 48.968 344.246 49.192 343.254 49.192ZM368.928 35.896C369.952 35.896 370.864 36.104 371.664 36.52C372.48 36.92 373.12 37.544 373.584 38.392C374.048 39.224 374.28 40.296 374.28 41.608V49H370.536V42.184C370.536 41.144 370.304 40.376 369.84 39.88C369.392 39.384 368.752 39.136 367.92 39.136C367.328 39.136 366.792 39.264 366.312 39.52C365.848 39.76 365.48 40.136 365.208 40.648C364.952 41.16 364.824 41.816 364.824 42.616V49H361.08V31.192H364.824V39.664L363.984 38.584C364.448 37.72 365.112 37.056 365.976 36.592C366.84 36.128 367.824 35.896 368.928 35.896ZM383.911 49.192C382.535 49.192 381.311 48.904 380.239 48.328C379.183 47.752 378.343 46.968 377.719 45.976C377.111 44.968 376.807 43.824 376.807 42.544C376.807 41.248 377.111 40.104 377.719 39.112C378.343 38.104 379.183 37.32 380.239 36.76C381.311 36.184 382.535 35.896 383.911 35.896C385.271 35.896 386.487 36.184 387.559 36.76C388.631 37.32 389.471 38.096 390.079 39.088C390.687 40.08 390.991 41.232 390.991 42.544C390.991 43.824 390.687 44.968 390.079 45.976C389.471 46.968 388.631 47.752 387.559 48.328C386.487 48.904 385.271 49.192 383.911 49.192ZM383.911 46.12C384.535 46.12 385.095 45.976 385.591 45.688C386.087 45.4 386.479 44.992 386.767 44.464C387.055 43.92 387.199 43.28 387.199 42.544C387.199 41.792 387.055 41.152 386.767 40.624C386.479 40.096 386.087 39.688 385.591 39.4C385.095 39.112 384.535 38.968 383.911 38.968C383.287 38.968 382.727 39.112 382.231 39.4C381.735 39.688 381.335 40.096 381.031 40.624C380.743 41.152 380.599 41.792 380.599 42.544C380.599 43.28 380.743 43.92 381.031 44.464C381.335 44.992 381.735 45.4 382.231 45.688C382.727 45.976 383.287 46.12 383.911 46.12ZM384.583 34.672L383.407 33.424C383.871 33.2 384.191 32.968 384.367 32.728C384.543 32.488 384.631 32.232 384.631 31.96C384.631 31.656 384.527 31.416 384.319 31.24C384.111 31.048 383.839 30.952 383.503 30.952C383.023 30.952 382.551 31.104 382.087 31.408L381.295 29.896C381.663 29.624 382.071 29.424 382.519 29.296C382.983 29.152 383.447 29.08 383.911 29.08C384.759 29.08 385.447 29.32 385.975 29.8C386.519 30.264 386.791 30.88 386.791 31.648C386.791 32.336 386.607 32.928 386.239 33.424C385.871 33.92 385.319 34.336 384.583 34.672ZM393.494 49V36.088H397.238V49H393.494ZM395.366 34.288C394.678 34.288 394.118 34.088 393.686 33.688C393.254 33.288 393.038 32.792 393.038 32.2C393.038 31.608 393.254 31.112 393.686 30.712C394.118 30.312 394.678 30.112 395.366 30.112C396.054 30.112 396.614 30.304 397.046 30.688C397.478 31.056 397.694 31.536 397.694 32.128C397.694 32.752 397.478 33.272 397.046 33.688C396.63 34.088 396.07 34.288 395.366 34.288ZM87.272 78.192C86.056 78.192 84.96 77.92 83.984 77.376C83.008 76.816 82.232 76.04 81.656 75.048C81.096 74.056 80.816 72.888 80.816 71.544C80.816 70.184 81.096 69.008 81.656 68.016C82.232 67.024 83.008 66.256 83.984 65.712C84.96 65.168 86.056 64.896 87.272 64.896C88.36 64.896 89.312 65.136 90.128 65.616C90.944 66.096 91.576 66.824 92.024 67.8C92.472 68.776 92.696 70.024 92.696 71.544C92.696 73.048 92.48 74.296 92.048 75.288C91.616 76.264 90.992 76.992 90.176 77.472C89.376 77.952 88.408 78.192 87.272 78.192ZM87.92 75.12C88.528 75.12 89.08 74.976 89.576 74.688C90.072 74.4 90.464 73.992 90.752 73.464C91.056 72.92 91.208 72.28 91.208 71.544C91.208 70.792 91.056 70.152 90.752 69.624C90.464 69.096 90.072 68.688 89.576 68.4C89.08 68.112 88.528 67.968 87.92 67.968C87.296 67.968 86.736 68.112 86.24 68.4C85.744 68.688 85.344 69.096 85.04 69.624C84.752 70.152 84.608 70.792 84.608 71.544C84.608 72.28 84.752 72.92 85.04 73.464C85.344 73.992 85.744 74.4 86.24 74.688C86.736 74.976 87.296 75.12 87.92 75.12ZM91.304 78V75.36L91.376 71.52L91.136 67.704V60.192H94.88V78H91.304ZM86.744 63.768V61.608H96.632V63.768H86.744ZM104.489 78.192C103.113 78.192 101.889 77.904 100.817 77.328C99.7612 76.752 98.9212 75.968 98.2972 74.976C97.6892 73.968 97.3852 72.824 97.3852 71.544C97.3852 70.248 97.6892 69.104 98.2972 68.112C98.9212 67.104 99.7612 66.32 100.817 65.76C101.889 65.184 103.113 64.896 104.489 64.896C105.849 64.896 107.065 65.184 108.137 65.76C109.209 66.32 110.049 67.096 110.657 68.088C111.265 69.08 111.569 70.232 111.569 71.544C111.569 72.824 111.265 73.968 110.657 74.976C110.049 75.968 109.209 76.752 108.137 77.328C107.065 77.904 105.849 78.192 104.489 78.192ZM104.489 75.12C105.113 75.12 105.673 74.976 106.169 74.688C106.665 74.4 107.057 73.992 107.345 73.464C107.633 72.92 107.777 72.28 107.777 71.544C107.777 70.792 107.633 70.152 107.345 69.624C107.057 69.096 106.665 68.688 106.169 68.4C105.673 68.112 105.113 67.968 104.489 67.968C103.865 67.968 103.305 68.112 102.809 68.4C102.313 68.688 101.913 69.096 101.609 69.624C101.321 70.152 101.177 70.792 101.177 71.544C101.177 72.28 101.321 72.92 101.609 73.464C101.913 73.992 102.313 74.4 102.809 74.688C103.305 74.976 103.865 75.12 104.489 75.12ZM104.441 83.04C103.977 83.04 103.585 82.896 103.265 82.608C102.945 82.32 102.785 81.928 102.785 81.432C102.785 80.936 102.945 80.528 103.265 80.208C103.585 79.904 103.977 79.752 104.441 79.752C104.905 79.752 105.297 79.904 105.617 80.208C105.937 80.528 106.097 80.936 106.097 81.432C106.097 81.928 105.937 82.32 105.617 82.608C105.297 82.896 104.905 83.04 104.441 83.04ZM99.6172 63.432L102.785 59.976H106.097L109.265 63.432H106.529L103.217 60.552H105.665L102.353 63.432H99.6172ZM114.072 78V65.088H117.816V78H114.072ZM115.944 63.288C115.256 63.288 114.696 63.088 114.264 62.688C113.832 62.288 113.616 61.792 113.616 61.2C113.616 60.608 113.832 60.112 114.264 59.712C114.696 59.312 115.256 59.112 115.944 59.112C116.632 59.112 117.192 59.304 117.624 59.688C118.056 60.056 118.272 60.536 118.272 61.128C118.272 61.752 118.056 62.272 117.624 62.688C117.208 63.088 116.648 63.288 115.944 63.288ZM135.935 64.896C136.959 64.896 137.871 65.104 138.671 65.52C139.487 65.92 140.127 66.544 140.591 67.392C141.055 68.224 141.287 69.296 141.287 70.608V78H137.543V71.184C137.543 70.144 137.311 69.376 136.847 68.88C136.399 68.384 135.759 68.136 134.927 68.136C134.335 68.136 133.799 68.264 133.319 68.52C132.855 68.76 132.487 69.136 132.215 69.648C131.959 70.16 131.831 70.816 131.831 71.616V78H128.087V65.088H131.663V68.664L130.991 67.584C131.455 66.72 132.119 66.056 132.983 65.592C133.847 65.128 134.831 64.896 135.935 64.896ZM150.847 82.848C149.631 82.848 148.455 82.696 147.319 82.392C146.199 82.104 145.263 81.664 144.511 81.072L145.999 78.384C146.543 78.832 147.231 79.184 148.063 79.44C148.911 79.712 149.743 79.848 150.559 79.848C151.887 79.848 152.847 79.552 153.439 78.96C154.047 78.368 154.351 77.488 154.351 76.32V74.376L154.591 71.136L154.543 67.872V65.088H158.095V75.84C158.095 78.24 157.471 80.008 156.223 81.144C154.975 82.28 153.183 82.848 150.847 82.848ZM150.271 77.376C149.071 77.376 147.983 77.12 147.007 76.608C146.047 76.08 145.271 75.352 144.679 74.424C144.103 73.48 143.815 72.384 143.815 71.136C143.815 69.872 144.103 68.776 144.679 67.848C145.271 66.904 146.047 66.176 147.007 65.664C147.983 65.152 149.071 64.896 150.271 64.896C151.359 64.896 152.319 65.12 153.151 65.568C153.983 66 154.631 66.68 155.095 67.608C155.559 68.52 155.791 69.696 155.791 71.136C155.791 72.56 155.559 73.736 155.095 74.664C154.631 75.576 153.983 76.256 153.151 76.704C152.319 77.152 151.359 77.376 150.271 77.376ZM151.015 74.304C151.671 74.304 152.255 74.176 152.767 73.92C153.279 73.648 153.679 73.272 153.967 72.792C154.255 72.312 154.399 71.76 154.399 71.136C154.399 70.496 154.255 69.944 153.967 69.48C153.679 69 153.279 68.632 152.767 68.376C152.255 68.104 151.671 67.968 151.015 67.968C150.359 67.968 149.775 68.104 149.263 68.376C148.751 68.632 148.343 69 148.039 69.48C147.751 69.944 147.607 70.496 147.607 71.136C147.607 71.76 147.751 72.312 148.039 72.792C148.343 73.272 148.751 73.648 149.263 73.92C149.775 74.176 150.359 74.304 151.015 74.304ZM167.028 78.192C165.956 78.192 164.996 77.984 164.148 77.568C163.316 77.152 162.668 76.52 162.204 75.672C161.74 74.808 161.508 73.712 161.508 72.384V65.088H165.252V71.832C165.252 72.904 165.476 73.696 165.924 74.208C166.388 74.704 167.036 74.952 167.868 74.952C168.444 74.952 168.956 74.832 169.404 74.592C169.852 74.336 170.204 73.952 170.46 73.44C170.716 72.912 170.844 72.256 170.844 71.472V65.088H174.588V78H171.036V74.448L171.684 75.48C171.252 76.376 170.612 77.056 169.764 77.52C168.932 77.968 168.02 78.192 167.028 78.192ZM169.836 63.504C169.42 63.504 169.052 63.432 168.732 63.288C168.412 63.128 168.124 62.952 167.868 62.76C167.612 62.552 167.372 62.376 167.148 62.232C166.924 62.072 166.7 61.992 166.476 61.992C166.156 61.992 165.892 62.112 165.684 62.352C165.476 62.576 165.356 62.904 165.324 63.336H163.428C163.46 62.264 163.724 61.416 164.22 60.792C164.716 60.152 165.388 59.832 166.236 59.832C166.652 59.832 167.02 59.912 167.34 60.072C167.66 60.216 167.948 60.392 168.204 60.6C168.476 60.808 168.724 60.992 168.948 61.152C169.172 61.296 169.388 61.368 169.596 61.368C169.932 61.368 170.204 61.256 170.412 61.032C170.62 60.792 170.732 60.472 170.748 60.072H172.644C172.628 61.096 172.364 61.928 171.852 62.568C171.356 63.192 170.684 63.504 169.836 63.504ZM191.093 78.192C189.701 78.192 188.461 77.912 187.373 77.352C186.285 76.776 185.429 75.984 184.805 74.976C184.197 73.968 183.893 72.824 183.893 71.544C183.893 70.248 184.197 69.104 184.805 68.112C185.429 67.104 186.285 66.32 187.373 65.76C188.461 65.184 189.701 64.896 191.093 64.896C192.453 64.896 193.637 65.184 194.645 65.76C195.653 66.32 196.397 67.128 196.877 68.184L193.973 69.744C193.637 69.136 193.213 68.688 192.701 68.4C192.205 68.112 191.661 67.968 191.069 67.968C190.429 67.968 189.853 68.112 189.341 68.4C188.829 68.688 188.421 69.096 188.117 69.624C187.829 70.152 187.685 70.792 187.685 71.544C187.685 72.296 187.829 72.936 188.117 73.464C188.421 73.992 188.829 74.4 189.341 74.688C189.853 74.976 190.429 75.12 191.069 75.12C191.661 75.12 192.205 74.984 192.701 74.712C193.213 74.424 193.637 73.968 193.973 73.344L196.877 74.928C196.397 75.968 195.653 76.776 194.645 77.352C193.637 77.912 192.453 78.192 191.093 78.192ZM204.481 78.192C203.409 78.192 202.449 77.984 201.601 77.568C200.769 77.152 200.121 76.52 199.657 75.672C199.193 74.808 198.961 73.712 198.961 72.384V65.088H202.705V71.832C202.705 72.904 202.929 73.696 203.377 74.208C203.841 74.704 204.489 74.952 205.321 74.952C205.897 74.952 206.409 74.832 206.857 74.592C207.305 74.336 207.657 73.952 207.913 73.44C208.169 72.912 208.297 72.256 208.297 71.472V65.088H212.041V78H208.489V74.448L209.137 75.48C208.705 76.376 208.065 77.056 207.217 77.52C206.385 77.968 205.473 78.192 204.481 78.192ZM206.209 63.672L205.033 62.424C205.497 62.2 205.817 61.968 205.993 61.728C206.169 61.488 206.257 61.232 206.257 60.96C206.257 60.656 206.153 60.416 205.945 60.24C205.737 60.048 205.465 59.952 205.129 59.952C204.649 59.952 204.177 60.104 203.713 60.408L202.921 58.896C203.289 58.624 203.697 58.424 204.145 58.296C204.609 58.152 205.073 58.08 205.537 58.08C206.385 58.08 207.073 58.32 207.601 58.8C208.145 59.264 208.417 59.88 208.417 60.648C208.417 61.336 208.233 61.928 207.865 62.424C207.497 62.92 206.945 63.336 206.209 63.672ZM223.429 78V75.48L223.189 74.928V70.416C223.189 69.616 222.941 68.992 222.445 68.544C221.965 68.096 221.221 67.872 220.213 67.872C219.525 67.872 218.845 67.984 218.173 68.208C217.517 68.416 216.957 68.704 216.493 69.072L215.149 66.456C215.853 65.96 216.701 65.576 217.693 65.304C218.685 65.032 219.693 64.896 220.717 64.896C222.685 64.896 224.213 65.36 225.301 66.288C226.389 67.216 226.933 68.664 226.933 70.632V78H223.429ZM219.493 78.192C218.485 78.192 217.621 78.024 216.901 77.688C216.181 77.336 215.629 76.864 215.245 76.272C214.861 75.68 214.669 75.016 214.669 74.28C214.669 73.512 214.853 72.84 215.221 72.264C215.605 71.688 216.205 71.24 217.021 70.92C217.837 70.584 218.901 70.416 220.213 70.416H223.645V72.6H220.621C219.741 72.6 219.133 72.744 218.797 73.032C218.477 73.32 218.317 73.68 218.317 74.112C218.317 74.592 218.501 74.976 218.869 75.264C219.253 75.536 219.773 75.672 220.429 75.672C221.053 75.672 221.613 75.528 222.109 75.24C222.605 74.936 222.965 74.496 223.189 73.92L223.765 75.648C223.493 76.48 222.997 77.112 222.277 77.544C221.557 77.976 220.629 78.192 219.493 78.192ZM237.119 78V60.192H240.863V78H237.119ZM249.785 78.192C248.713 78.192 247.753 77.984 246.905 77.568C246.073 77.152 245.425 76.52 244.961 75.672C244.497 74.808 244.265 73.712 244.265 72.384V65.088H248.009V71.832C248.009 72.904 248.233 73.696 248.681 74.208C249.145 74.704 249.793 74.952 250.625 74.952C251.201 74.952 251.713 74.832 252.161 74.592C252.609 74.336 252.961 73.952 253.217 73.44C253.473 72.912 253.601 72.256 253.601 71.472V65.088H257.345V78H253.793V74.448L254.441 75.48C254.009 76.376 253.369 77.056 252.521 77.52C251.689 77.968 250.777 78.192 249.785 78.192ZM266.958 78.192C265.582 78.192 264.358 77.904 263.286 77.328C262.23 76.752 261.39 75.968 260.766 74.976C260.158 73.968 259.854 72.824 259.854 71.544C259.854 70.248 260.158 69.104 260.766 68.112C261.39 67.104 262.23 66.32 263.286 65.76C264.358 65.184 265.582 64.896 266.958 64.896C268.318 64.896 269.534 65.184 270.606 65.76C271.678 66.32 272.518 67.096 273.126 68.088C273.734 69.08 274.038 70.232 274.038 71.544C274.038 72.824 273.734 73.968 273.126 74.976C272.518 75.968 271.678 76.752 270.606 77.328C269.534 77.904 268.318 78.192 266.958 78.192ZM266.958 75.12C267.582 75.12 268.142 74.976 268.638 74.688C269.134 74.4 269.526 73.992 269.814 73.464C270.102 72.92 270.246 72.28 270.246 71.544C270.246 70.792 270.102 70.152 269.814 69.624C269.526 69.096 269.134 68.688 268.638 68.4C268.142 68.112 267.582 67.968 266.958 67.968C266.334 67.968 265.774 68.112 265.278 68.4C264.782 68.688 264.382 69.096 264.078 69.624C263.79 70.152 263.646 70.792 263.646 71.544C263.646 72.28 263.79 72.92 264.078 73.464C264.382 73.992 264.782 74.4 265.278 74.688C265.774 74.976 266.334 75.12 266.958 75.12ZM262.086 63.432L265.254 59.976H268.566L271.734 63.432H268.998L265.686 60.552H268.134L264.822 63.432H262.086ZM284.389 64.896C285.413 64.896 286.325 65.104 287.125 65.52C287.941 65.92 288.581 66.544 289.045 67.392C289.509 68.224 289.741 69.296 289.741 70.608V78H285.997V71.184C285.997 70.144 285.765 69.376 285.301 68.88C284.853 68.384 284.213 68.136 283.381 68.136C282.789 68.136 282.253 68.264 281.773 68.52C281.309 68.76 280.941 69.136 280.669 69.648C280.413 70.16 280.285 70.816 280.285 71.616V78H276.541V65.088H280.117V68.664L279.445 67.584C279.909 66.72 280.573 66.056 281.437 65.592C282.301 65.128 283.285 64.896 284.389 64.896ZM304.275 78.192C303.171 78.192 302.107 78.064 301.083 77.808C300.075 77.536 299.275 77.2 298.683 76.8L299.931 74.112C300.523 74.48 301.219 74.784 302.019 75.024C302.835 75.248 303.635 75.36 304.419 75.36C305.283 75.36 305.891 75.256 306.243 75.048C306.611 74.84 306.795 74.552 306.795 74.184C306.795 73.88 306.651 73.656 306.363 73.512C306.091 73.352 305.723 73.232 305.259 73.152C304.795 73.072 304.283 72.992 303.723 72.912C303.179 72.832 302.627 72.728 302.067 72.6C301.507 72.456 300.995 72.248 300.531 71.976C300.067 71.704 299.691 71.336 299.403 70.872C299.131 70.408 298.995 69.808 298.995 69.072C298.995 68.256 299.227 67.536 299.691 66.912C300.171 66.288 300.859 65.8 301.755 65.448C302.651 65.08 303.723 64.896 304.971 64.896C305.851 64.896 306.747 64.992 307.659 65.184C308.571 65.376 309.331 65.656 309.939 66.024L308.691 68.688C308.067 68.32 307.435 68.072 306.795 67.944C306.171 67.8 305.563 67.728 304.971 67.728C304.139 67.728 303.531 67.84 303.147 68.064C302.763 68.288 302.571 68.576 302.571 68.928C302.571 69.248 302.707 69.488 302.979 69.648C303.267 69.808 303.643 69.936 304.107 70.032C304.571 70.128 305.075 70.216 305.619 70.296C306.179 70.36 306.739 70.464 307.299 70.608C307.859 70.752 308.363 70.96 308.811 71.232C309.275 71.488 309.651 71.848 309.939 72.312C310.227 72.76 310.371 73.352 310.371 74.088C310.371 74.888 310.131 75.6 309.651 76.224C309.171 76.832 308.475 77.312 307.563 77.664C306.667 78.016 305.571 78.192 304.275 78.192ZM320.601 78V75.48L320.361 74.928V70.416C320.361 69.616 320.113 68.992 319.617 68.544C319.137 68.096 318.393 67.872 317.385 67.872C316.697 67.872 316.017 67.984 315.345 68.208C314.689 68.416 314.129 68.704 313.665 69.072L312.321 66.456C313.025 65.96 313.873 65.576 314.865 65.304C315.857 65.032 316.865 64.896 317.889 64.896C319.857 64.896 321.385 65.36 322.473 66.288C323.561 67.216 324.105 68.664 324.105 70.632V78H320.601ZM316.665 78.192C315.657 78.192 314.793 78.024 314.073 77.688C313.353 77.336 312.801 76.864 312.417 76.272C312.033 75.68 311.841 75.016 311.841 74.28C311.841 73.512 312.025 72.84 312.393 72.264C312.777 71.688 313.377 71.24 314.193 70.92C315.009 70.584 316.073 70.416 317.385 70.416H320.817V72.6H317.793C316.913 72.6 316.305 72.744 315.969 73.032C315.649 73.32 315.489 73.68 315.489 74.112C315.489 74.592 315.673 74.976 316.041 75.264C316.425 75.536 316.945 75.672 317.601 75.672C318.225 75.672 318.785 75.528 319.281 75.24C319.777 74.936 320.137 74.496 320.361 73.92L320.937 75.648C320.665 76.48 320.169 77.112 319.449 77.544C318.729 77.976 317.801 78.192 316.665 78.192ZM318.273 63.624C317.041 63.624 316.017 63.36 315.201 62.832C314.385 62.304 313.937 61.592 313.857 60.696H316.113C316.161 61.032 316.385 61.304 316.785 61.512C317.185 61.72 317.681 61.824 318.273 61.824C318.865 61.824 319.361 61.72 319.761 61.512C320.161 61.304 320.385 61.032 320.433 60.696H322.689C322.609 61.592 322.161 62.304 321.345 62.832C320.529 63.36 319.505 63.624 318.273 63.624ZM320.049 60.024C319.489 60.024 319.009 59.92 318.609 59.712C318.225 59.504 317.881 59.296 317.577 59.088C317.289 58.88 317.009 58.776 316.737 58.776C316.417 58.776 316.169 58.88 315.993 59.088C315.817 59.28 315.713 59.544 315.681 59.88H313.761C313.777 58.92 314.025 58.184 314.505 57.672C315.001 57.144 315.681 56.88 316.545 56.88C317.073 56.88 317.529 56.984 317.913 57.192C318.313 57.4 318.665 57.608 318.969 57.816C319.289 58.024 319.585 58.128 319.857 58.128C320.193 58.128 320.449 58.032 320.625 57.84C320.801 57.632 320.897 57.368 320.913 57.048H322.785C322.769 57.96 322.521 58.688 322.041 59.232C321.577 59.76 320.913 60.024 320.049 60.024ZM335.342 64.896C336.366 64.896 337.278 65.104 338.078 65.52C338.894 65.92 339.534 66.544 339.998 67.392C340.462 68.224 340.694 69.296 340.694 70.608V78H336.95V71.184C336.95 70.144 336.718 69.376 336.254 68.88C335.806 68.384 335.166 68.136 334.334 68.136C333.742 68.136 333.206 68.264 332.726 68.52C332.262 68.76 331.894 69.136 331.622 69.648C331.366 70.16 331.238 70.816 331.238 71.616V78H327.494V65.088H331.07V68.664L330.398 67.584C330.862 66.72 331.526 66.056 332.39 65.592C333.254 65.128 334.238 64.896 335.342 64.896ZM355.228 78.192C354.124 78.192 353.06 78.064 352.036 77.808C351.028 77.536 350.228 77.2 349.636 76.8L350.884 74.112C351.476 74.48 352.172 74.784 352.972 75.024C353.788 75.248 354.588 75.36 355.372 75.36C356.236 75.36 356.844 75.256 357.196 75.048C357.564 74.84 357.748 74.552 357.748 74.184C357.748 73.88 357.604 73.656 357.316 73.512C357.044 73.352 356.676 73.232 356.212 73.152C355.748 73.072 355.236 72.992 354.676 72.912C354.132 72.832 353.58 72.728 353.02 72.6C352.46 72.456 351.948 72.248 351.484 71.976C351.02 71.704 350.644 71.336 350.356 70.872C350.084 70.408 349.948 69.808 349.948 69.072C349.948 68.256 350.18 67.536 350.644 66.912C351.124 66.288 351.812 65.8 352.708 65.448C353.604 65.08 354.676 64.896 355.924 64.896C356.804 64.896 357.7 64.992 358.612 65.184C359.524 65.376 360.284 65.656 360.892 66.024L359.644 68.688C359.02 68.32 358.388 68.072 357.748 67.944C357.124 67.8 356.516 67.728 355.924 67.728C355.092 67.728 354.484 67.84 354.1 68.064C353.716 68.288 353.524 68.576 353.524 68.928C353.524 69.248 353.66 69.488 353.932 69.648C354.22 69.808 354.596 69.936 355.06 70.032C355.524 70.128 356.028 70.216 356.572 70.296C357.132 70.36 357.692 70.464 358.252 70.608C358.812 70.752 359.316 70.96 359.764 71.232C360.228 71.488 360.604 71.848 360.892 72.312C361.18 72.76 361.324 73.352 361.324 74.088C361.324 74.888 361.084 75.6 360.604 76.224C360.124 76.832 359.428 77.312 358.516 77.664C357.62 78.016 356.524 78.192 355.228 78.192ZM371.554 78V75.48L371.314 74.928V70.416C371.314 69.616 371.066 68.992 370.57 68.544C370.09 68.096 369.346 67.872 368.338 67.872C367.65 67.872 366.97 67.984 366.298 68.208C365.642 68.416 365.082 68.704 364.618 69.072L363.274 66.456C363.978 65.96 364.826 65.576 365.818 65.304C366.81 65.032 367.818 64.896 368.842 64.896C370.81 64.896 372.338 65.36 373.426 66.288C374.514 67.216 375.058 68.664 375.058 70.632V78H371.554ZM367.618 78.192C366.61 78.192 365.746 78.024 365.026 77.688C364.306 77.336 363.754 76.864 363.37 76.272C362.986 75.68 362.794 75.016 362.794 74.28C362.794 73.512 362.978 72.84 363.346 72.264C363.73 71.688 364.33 71.24 365.146 70.92C365.962 70.584 367.026 70.416 368.338 70.416H371.77V72.6H368.746C367.866 72.6 367.258 72.744 366.922 73.032C366.602 73.32 366.442 73.68 366.442 74.112C366.442 74.592 366.626 74.976 366.994 75.264C367.378 75.536 367.898 75.672 368.554 75.672C369.178 75.672 369.738 75.528 370.234 75.24C370.73 74.936 371.09 74.496 371.314 73.92L371.89 75.648C371.618 76.48 371.122 77.112 370.402 77.544C369.682 77.976 368.754 78.192 367.618 78.192ZM368.482 63.432L364.138 59.976H368.17L371.41 63.432H368.482ZM386.295 64.896C387.319 64.896 388.231 65.104 389.031 65.52C389.847 65.92 390.487 66.544 390.951 67.392C391.415 68.224 391.647 69.296 391.647 70.608V78H387.903V71.184C387.903 70.144 387.671 69.376 387.207 68.88C386.759 68.384 386.119 68.136 385.287 68.136C384.695 68.136 384.159 68.264 383.679 68.52C383.215 68.76 382.847 69.136 382.575 69.648C382.319 70.16 382.191 70.816 382.191 71.616V78H378.447V65.088H382.023V68.664L381.351 67.584C381.815 66.72 382.479 66.056 383.343 65.592C384.207 65.128 385.191 64.896 386.295 64.896ZM401.206 82.848C399.99 82.848 398.814 82.696 397.678 82.392C396.558 82.104 395.622 81.664 394.87 81.072L396.358 78.384C396.902 78.832 397.59 79.184 398.422 79.44C399.27 79.712 400.102 79.848 400.918 79.848C402.246 79.848 403.206 79.552 403.798 78.96C404.406 78.368 404.71 77.488 404.71 76.32V74.376L404.95 71.136L404.902 67.872V65.088H408.454V75.84C408.454 78.24 407.83 80.008 406.582 81.144C405.334 82.28 403.542 82.848 401.206 82.848ZM400.63 77.376C399.43 77.376 398.342 77.12 397.366 76.608C396.406 76.08 395.63 75.352 395.038 74.424C394.462 73.48 394.174 72.384 394.174 71.136C394.174 69.872 394.462 68.776 395.038 67.848C395.63 66.904 396.406 66.176 397.366 65.664C398.342 65.152 399.43 64.896 400.63 64.896C401.718 64.896 402.678 65.12 403.51 65.568C404.342 66 404.99 66.68 405.454 67.608C405.918 68.52 406.15 69.696 406.15 71.136C406.15 72.56 405.918 73.736 405.454 74.664C404.99 75.576 404.342 76.256 403.51 76.704C402.678 77.152 401.718 77.376 400.63 77.376ZM401.374 74.304C402.03 74.304 402.614 74.176 403.126 73.92C403.638 73.648 404.038 73.272 404.326 72.792C404.614 72.312 404.758 71.76 404.758 71.136C404.758 70.496 404.614 69.944 404.326 69.48C404.038 69 403.638 68.632 403.126 68.376C402.614 68.104 402.03 67.968 401.374 67.968C400.718 67.968 400.134 68.104 399.622 68.376C399.11 68.632 398.702 69 398.398 69.48C398.11 69.944 397.966 70.496 397.966 71.136C397.966 71.76 398.11 72.312 398.398 72.792C398.702 73.272 399.11 73.648 399.622 73.92C400.134 74.176 400.718 74.304 401.374 74.304Z" fill="white"/>
<path d="M1019.77 20.0066C997.328 19.6066 979.381 37.5051 979.006 59.2783C978.607 81.8514 996.853 100.05 1018.97 99.9999C1040.82 100.05 1058.57 82.5014 1058.99 60.8282C1059.42 38.405 1041.55 20.4065 1019.77 20.0066ZM1019.8 95.2753C999.903 95.7002 983.881 79.7016 983.756 60.3782C983.506 40.8548 999.178 25.1561 1018.2 24.7312C1037.95 24.3062 1053.87 40.0049 1054.27 59.1783C1054.69 79.1016 1038.8 94.8753 1019.8 95.2753Z" fill="white"/>
<path d="M1033.62 74.477C1031.7 73.1271 1029.52 72.2522 1027.4 71.2773C1025.35 70.3274 1023.3 70.5024 1021.4 71.7273C1019.97 72.6272 1018.57 73.5521 1017.15 74.477C1016.92 74.627 1016.77 74.627 1016.52 74.477C1013.65 72.6522 1011.15 70.4024 1009.15 67.6526C1006.5 64.0529 1004.9 60.0532 1004.23 55.6286C1004.18 55.3036 1004.23 55.0786 1004.55 54.9037C1005.95 54.0287 1007.35 53.1038 1008.73 52.2039C1010.35 51.129 1011.35 49.6041 1011.5 47.6543C1011.6 46.6544 1011.5 45.6294 1011.5 44.6045C1011.48 44.6045 1011.45 44.6045 1011.43 44.6045C1011.43 43.8546 1011.45 43.1046 1011.43 42.3797C1011.38 41.6298 1011.28 40.9048 1011.18 40.1549C1010.88 38.1301 1009.73 36.9302 1007.7 36.7302C1006.3 36.6052 1004.88 36.6052 1003.48 36.6302C1000.6 36.6802 998.628 38.2301 997.228 40.6299C996.628 41.6298 996.178 42.7047 995.904 43.8296C994.829 48.2542 994.654 52.7038 995.354 57.2035C996.353 63.7529 998.953 69.5774 1003.2 74.652C1008.05 80.4515 1014.13 84.3012 1021.42 86.276C1023.62 86.876 1025.82 87.201 1028.07 86.776C1030.17 86.376 1031.95 85.4511 1033.07 83.5263C1033.92 82.1014 1034.6 80.5765 1035.1 79.0016C1035.22 78.6017 1035.32 78.2017 1035.35 77.7767C1035.4 76.3519 1034.8 75.277 1033.62 74.452V74.477Z" fill="white"/>
<path d="M1035.12 43.4546C1032.92 41.4298 1030.4 39.9049 1027.57 38.905C1026.25 38.43 1024.9 39.055 1024.47 40.3549C1024.05 41.6298 1024.72 42.8797 1026.12 43.4046C1031.35 45.4045 1034.87 49.0292 1036.77 54.2787C1037.42 56.1036 1037.67 58.0284 1037.75 59.9532C1037.8 61.1531 1038.77 62.0531 1039.95 62.1281C1041.12 62.203 1042.17 61.3781 1042.37 60.2032C1042.45 59.8032 1042.42 59.4033 1042.45 59.0283C1042.35 58.2034 1042.32 57.4035 1042.2 56.6035C1041.37 51.404 1039.05 47.0043 1035.17 43.4296L1035.12 43.4546Z" fill="white"/>
<path d="M1022.2 53.6538C1025.1 54.8037 1026.57 56.9285 1026.72 60.0282C1026.77 61.0032 1027.27 61.7031 1028.17 62.0781C1029.77 62.728 1031.57 61.5281 1031.42 59.7033C1031.37 58.2284 1031.1 56.8785 1030.55 55.6036C1029.22 52.5289 1027 50.404 1023.87 49.2291C1022.62 48.7542 1021.27 49.3791 1020.82 50.604C1020.37 51.8539 1020.95 53.1538 1022.2 53.6538Z" fill="white"/>
<path d="M869.434 37.2H873.322V54H869.434V37.2ZM861.802 54H857.914V37.2H861.802V54ZM869.722 47.112H861.514V43.824H869.722V47.112ZM885.457 54.288C884.129 54.288 882.897 54.072 881.761 53.64C880.641 53.208 879.665 52.6 878.833 51.816C878.017 51.032 877.377 50.112 876.913 49.056C876.465 48 876.241 46.848 876.241 45.6C876.241 44.352 876.465 43.2 876.913 42.144C877.377 41.088 878.025 40.168 878.857 39.384C879.689 38.6 880.665 37.992 881.785 37.56C882.905 37.128 884.121 36.912 885.433 36.912C886.761 36.912 887.977 37.128 889.081 37.56C890.201 37.992 891.169 38.6 891.985 39.384C892.817 40.168 893.465 41.088 893.929 42.144C894.393 43.184 894.625 44.336 894.625 45.6C894.625 46.848 894.393 48.008 893.929 49.08C893.465 50.136 892.817 51.056 891.985 51.84C891.169 52.608 890.201 53.208 889.081 53.64C887.977 54.072 886.769 54.288 885.457 54.288ZM885.433 50.976C886.185 50.976 886.873 50.848 887.497 50.592C888.137 50.336 888.697 49.968 889.177 49.488C889.657 49.008 890.025 48.44 890.281 47.784C890.553 47.128 890.689 46.4 890.689 45.6C890.689 44.8 890.553 44.072 890.281 43.416C890.025 42.76 889.657 42.192 889.177 41.712C888.713 41.232 888.161 40.864 887.521 40.608C886.881 40.352 886.185 40.224 885.433 40.224C884.681 40.224 883.985 40.352 883.345 40.608C882.721 40.864 882.169 41.232 881.689 41.712C881.209 42.192 880.833 42.76 880.561 43.416C880.305 44.072 880.177 44.8 880.177 45.6C880.177 46.384 880.305 47.112 880.561 47.784C880.833 48.44 881.201 49.008 881.665 49.488C882.145 49.968 882.705 50.336 883.345 50.592C883.985 50.848 884.681 50.976 885.433 50.976ZM900.792 54V40.368H895.416V37.2H910.056V40.368H904.68V54H900.792ZM912.148 54V37.2H916.036V50.832H924.46V54H912.148ZM926.633 54V37.2H930.521V54H926.633ZM934.508 54V37.2H937.724L947.636 49.296H946.076V37.2H949.916V54H946.724L936.788 41.904H938.348V54H934.508ZM957.466 43.968H965.554V46.992H957.466V43.968ZM957.754 50.88H966.898V54H953.89V37.2H966.586V40.32H957.754V50.88ZM778.816 83.288C777.44 83.288 776.208 82.952 775.12 82.28C774.032 81.592 773.176 80.6 772.552 79.304C771.928 78.008 771.616 76.44 771.616 74.6C771.616 72.76 771.928 71.192 772.552 69.896C773.176 68.6 774.032 67.616 775.12 66.944C776.208 66.256 777.44 65.912 778.816 65.912C780.208 65.912 781.44 66.256 782.512 66.944C783.6 67.616 784.456 68.6 785.08 69.896C785.704 71.192 786.016 72.76 786.016 74.6C786.016 76.44 785.704 78.008 785.08 79.304C784.456 80.6 783.6 81.592 782.512 82.28C781.44 82.952 780.208 83.288 778.816 83.288ZM778.816 80C779.472 80 780.04 79.816 780.52 79.448C781.016 79.08 781.4 78.496 781.672 77.696C781.96 76.896 782.104 75.864 782.104 74.6C782.104 73.336 781.96 72.304 781.672 71.504C781.4 70.704 781.016 70.12 780.52 69.752C780.04 69.384 779.472 69.2 778.816 69.2C778.176 69.2 777.608 69.384 777.112 69.752C776.632 70.12 776.248 70.704 775.96 71.504C775.688 72.304 775.552 73.336 775.552 74.6C775.552 75.864 775.688 76.896 775.96 77.696C776.248 78.496 776.632 79.08 777.112 79.448C777.608 79.816 778.176 80 778.816 80ZM794.865 83.288C793.457 83.288 792.225 83.08 791.169 82.664C790.113 82.232 789.289 81.632 788.697 80.864C788.105 80.08 787.809 79.168 787.809 78.128C787.809 77.088 788.097 76.208 788.673 75.488C789.265 74.752 790.089 74.2 791.145 73.832C792.201 73.448 793.441 73.256 794.865 73.256C796.305 73.256 797.553 73.448 798.609 73.832C799.681 74.2 800.505 74.752 801.081 75.488C801.673 76.208 801.969 77.088 801.969 78.128C801.969 79.168 801.673 80.08 801.081 80.864C800.489 81.632 799.657 82.232 798.585 82.664C797.529 83.08 796.289 83.288 794.865 83.288ZM794.865 80.432C795.841 80.432 796.609 80.216 797.169 79.784C797.745 79.352 798.033 78.76 798.033 78.008C798.033 77.256 797.745 76.672 797.169 76.256C796.609 75.824 795.841 75.608 794.865 75.608C793.905 75.608 793.145 75.824 792.585 76.256C792.025 76.672 791.745 77.256 791.745 78.008C791.745 78.76 792.025 79.352 792.585 79.784C793.145 80.216 793.905 80.432 794.865 80.432ZM794.865 75.224C793.569 75.224 792.433 75.048 791.457 74.696C790.497 74.344 789.745 73.832 789.201 73.16C788.673 72.472 788.409 71.656 788.409 70.712C788.409 69.72 788.681 68.872 789.225 68.168C789.769 67.448 790.529 66.896 791.505 66.512C792.481 66.112 793.601 65.912 794.865 65.912C796.161 65.912 797.289 66.112 798.249 66.512C799.225 66.896 799.985 67.448 800.529 68.168C801.089 68.872 801.369 69.72 801.369 70.712C801.369 71.656 801.097 72.472 800.553 73.16C800.025 73.832 799.273 74.344 798.297 74.696C797.321 75.048 796.177 75.224 794.865 75.224ZM794.865 72.944C795.681 72.944 796.321 72.76 796.785 72.392C797.265 72.024 797.505 71.52 797.505 70.88C797.505 70.208 797.257 69.688 796.761 69.32C796.281 68.952 795.649 68.768 794.865 68.768C794.097 68.768 793.473 68.952 792.993 69.32C792.513 69.688 792.273 70.208 792.273 70.88C792.273 71.52 792.505 72.024 792.969 72.392C793.433 72.76 794.065 72.944 794.865 72.944ZM806.34 83V67.64L808.021 69.32H802.981V66.2H810.229V83H806.34ZM813.003 83V80.48L819.483 74.36C819.995 73.896 820.371 73.48 820.611 73.112C820.851 72.744 821.011 72.408 821.091 72.104C821.187 71.8 821.235 71.52 821.235 71.264C821.235 70.592 821.003 70.08 820.539 69.728C820.091 69.36 819.427 69.176 818.547 69.176C817.843 69.176 817.187 69.312 816.579 69.584C815.987 69.856 815.483 70.28 815.067 70.856L812.235 69.032C812.875 68.072 813.771 67.312 814.923 66.752C816.075 66.192 817.403 65.912 818.907 65.912C820.155 65.912 821.243 66.12 822.171 66.536C823.115 66.936 823.843 67.504 824.355 68.24C824.883 68.976 825.147 69.856 825.147 70.88C825.147 71.424 825.075 71.968 824.931 72.512C824.803 73.04 824.531 73.6 824.115 74.192C823.715 74.784 823.123 75.448 822.339 76.184L816.963 81.248L816.219 79.832H825.699V83H813.003ZM840.004 65.912C841.556 65.912 842.892 66.232 844.012 66.872C845.132 67.512 845.996 68.448 846.604 69.68C847.212 70.896 847.516 72.416 847.516 74.24C847.516 76.176 847.148 77.816 846.412 79.16C845.692 80.504 844.692 81.528 843.412 82.232C842.132 82.936 840.644 83.288 838.948 83.288C838.068 83.288 837.22 83.192 836.404 83C835.588 82.808 834.884 82.52 834.292 82.136L835.732 79.28C836.196 79.6 836.692 79.824 837.22 79.952C837.748 80.064 838.3 80.12 838.876 80.12C840.316 80.12 841.46 79.68 842.308 78.8C843.172 77.92 843.604 76.616 843.604 74.888C843.604 74.6 843.596 74.28 843.58 73.928C843.564 73.576 843.524 73.224 843.46 72.872L844.516 73.88C844.244 74.504 843.86 75.032 843.364 75.464C842.868 75.88 842.292 76.2 841.636 76.424C840.98 76.632 840.244 76.736 839.428 76.736C838.356 76.736 837.38 76.52 836.5 76.088C835.636 75.656 834.94 75.048 834.412 74.264C833.9 73.48 833.644 72.56 833.644 71.504C833.644 70.352 833.924 69.36 834.484 68.528C835.06 67.696 835.828 67.056 836.788 66.608C837.764 66.144 838.836 65.912 840.004 65.912ZM840.244 68.816C839.684 68.816 839.196 68.92 838.78 69.128C838.364 69.32 838.036 69.608 837.796 69.992C837.556 70.36 837.436 70.8 837.436 71.312C837.436 72.08 837.692 72.696 838.204 73.16C838.732 73.608 839.428 73.832 840.292 73.832C840.852 73.832 841.348 73.728 841.78 73.52C842.228 73.296 842.572 72.992 842.812 72.608C843.052 72.224 843.172 71.792 843.172 71.312C843.172 70.832 843.052 70.408 842.812 70.04C842.588 69.656 842.26 69.36 841.828 69.152C841.396 68.928 840.868 68.816 840.244 68.816ZM855.093 83.288C853.925 83.288 852.765 83.136 851.613 82.832C850.477 82.512 849.501 82.064 848.685 81.488L850.221 78.512C850.861 78.976 851.597 79.344 852.429 79.616C853.277 79.888 854.133 80.024 854.997 80.024C855.973 80.024 856.741 79.832 857.301 79.448C857.861 79.064 858.141 78.528 858.141 77.84C858.141 77.408 858.029 77.024 857.805 76.688C857.581 76.352 857.181 76.096 856.605 75.92C856.045 75.744 855.253 75.656 854.229 75.656H849.933L850.797 66.2H861.045V69.32H852.189L854.205 67.544L853.605 74.288L851.589 72.512H855.141C856.805 72.512 858.141 72.744 859.149 73.208C860.173 73.656 860.917 74.272 861.381 75.056C861.845 75.84 862.077 76.728 862.077 77.72C862.077 78.712 861.829 79.632 861.333 80.48C860.837 81.312 860.069 81.992 859.029 82.52C858.005 83.032 856.693 83.288 855.093 83.288ZM877.964 83.288C876.428 83.288 875.092 82.968 873.956 82.328C872.836 81.688 871.972 80.752 871.364 79.52C870.756 78.288 870.452 76.768 870.452 74.96C870.452 73.024 870.812 71.384 871.532 70.04C872.268 68.696 873.276 67.672 874.556 66.968C875.852 66.264 877.34 65.912 879.02 65.912C879.916 65.912 880.772 66.008 881.588 66.2C882.404 66.392 883.108 66.68 883.7 67.064L882.26 69.92C881.796 69.6 881.3 69.384 880.772 69.272C880.244 69.144 879.692 69.08 879.116 69.08C877.66 69.08 876.508 69.52 875.66 70.4C874.812 71.28 874.388 72.584 874.388 74.312C874.388 74.6 874.388 74.92 874.388 75.272C874.404 75.624 874.452 75.976 874.532 76.328L873.452 75.32C873.756 74.696 874.148 74.176 874.628 73.76C875.108 73.328 875.676 73.008 876.332 72.8C877.004 72.576 877.74 72.464 878.54 72.464C879.628 72.464 880.604 72.68 881.468 73.112C882.332 73.544 883.02 74.152 883.532 74.936C884.06 75.72 884.324 76.64 884.324 77.696C884.324 78.832 884.036 79.824 883.46 80.672C882.9 81.504 882.14 82.152 881.18 82.616C880.236 83.064 879.164 83.288 877.964 83.288ZM877.748 80.384C878.292 80.384 878.772 80.288 879.188 80.096C879.62 79.888 879.956 79.592 880.196 79.208C880.436 78.824 880.556 78.384 880.556 77.888C880.556 77.12 880.292 76.512 879.764 76.064C879.252 75.6 878.564 75.368 877.7 75.368C877.124 75.368 876.62 75.48 876.188 75.704C875.756 75.912 875.412 76.208 875.156 76.592C874.916 76.96 874.796 77.392 874.796 77.888C874.796 78.368 874.916 78.8 875.156 79.184C875.396 79.552 875.732 79.848 876.164 80.072C876.596 80.28 877.124 80.384 877.748 80.384ZM893.245 83.288C891.709 83.288 890.373 82.968 889.237 82.328C888.117 81.688 887.253 80.752 886.645 79.52C886.037 78.288 885.733 76.768 885.733 74.96C885.733 73.024 886.093 71.384 886.813 70.04C887.549 68.696 888.557 67.672 889.837 66.968C891.133 66.264 892.621 65.912 894.301 65.912C895.197 65.912 896.053 66.008 896.869 66.2C897.685 66.392 898.389 66.68 898.981 67.064L897.541 69.92C897.077 69.6 896.581 69.384 896.053 69.272C895.525 69.144 894.973 69.08 894.397 69.08C892.941 69.08 891.789 69.52 890.941 70.4C890.093 71.28 889.669 72.584 889.669 74.312C889.669 74.6 889.669 74.92 889.669 75.272C889.685 75.624 889.733 75.976 889.813 76.328L888.733 75.32C889.037 74.696 889.429 74.176 889.909 73.76C890.389 73.328 890.957 73.008 891.613 72.8C892.285 72.576 893.021 72.464 893.821 72.464C894.909 72.464 895.885 72.68 896.749 73.112C897.613 73.544 898.301 74.152 898.813 74.936C899.341 75.72 899.605 76.64 899.605 77.696C899.605 78.832 899.317 79.824 898.741 80.672C898.181 81.504 897.421 82.152 896.461 82.616C895.517 83.064 894.445 83.288 893.245 83.288ZM893.029 80.384C893.573 80.384 894.053 80.288 894.469 80.096C894.901 79.888 895.237 79.592 895.477 79.208C895.717 78.824 895.837 78.384 895.837 77.888C895.837 77.12 895.573 76.512 895.045 76.064C894.533 75.6 893.845 75.368 892.981 75.368C892.405 75.368 891.901 75.48 891.469 75.704C891.037 75.912 890.693 76.208 890.437 76.592C890.197 76.96 890.077 77.392 890.077 77.888C890.077 78.368 890.197 78.8 890.437 79.184C890.677 79.552 891.013 79.848 891.445 80.072C891.877 80.28 892.405 80.384 893.029 80.384ZM908.526 83.288C906.99 83.288 905.654 82.968 904.518 82.328C903.398 81.688 902.534 80.752 901.926 79.52C901.318 78.288 901.014 76.768 901.014 74.96C901.014 73.024 901.374 71.384 902.094 70.04C902.83 68.696 903.838 67.672 905.118 66.968C906.414 66.264 907.902 65.912 909.582 65.912C910.478 65.912 911.334 66.008 912.15 66.2C912.966 66.392 913.67 66.68 914.262 67.064L912.822 69.92C912.358 69.6 911.862 69.384 911.334 69.272C910.806 69.144 910.254 69.08 909.678 69.08C908.222 69.08 907.07 69.52 906.222 70.4C905.374 71.28 904.95 72.584 904.95 74.312C904.95 74.6 904.95 74.92 904.95 75.272C904.966 75.624 905.014 75.976 905.094 76.328L904.014 75.32C904.318 74.696 904.71 74.176 905.19 73.76C905.67 73.328 906.238 73.008 906.894 72.8C907.566 72.576 908.302 72.464 909.102 72.464C910.19 72.464 911.166 72.68 912.03 73.112C912.894 73.544 913.582 74.152 914.094 74.936C914.622 75.72 914.886 76.64 914.886 77.696C914.886 78.832 914.598 79.824 914.022 80.672C913.462 81.504 912.702 82.152 911.742 82.616C910.798 83.064 909.726 83.288 908.526 83.288ZM908.31 80.384C908.854 80.384 909.334 80.288 909.75 80.096C910.182 79.888 910.518 79.592 910.758 79.208C910.998 78.824 911.118 78.384 911.118 77.888C911.118 77.12 910.854 76.512 910.326 76.064C909.814 75.6 909.126 75.368 908.262 75.368C907.686 75.368 907.182 75.48 906.75 75.704C906.318 75.912 905.974 76.208 905.718 76.592C905.478 76.96 905.358 77.392 905.358 77.888C905.358 78.368 905.478 78.8 905.718 79.184C905.958 79.552 906.294 79.848 906.726 80.072C907.158 80.28 907.686 80.384 908.31 80.384ZM930.604 83.288C929.068 83.288 927.732 82.968 926.596 82.328C925.476 81.688 924.612 80.752 924.004 79.52C923.396 78.288 923.092 76.768 923.092 74.96C923.092 73.024 923.452 71.384 924.172 70.04C924.908 68.696 925.916 67.672 927.196 66.968C928.492 66.264 929.98 65.912 931.66 65.912C932.556 65.912 933.412 66.008 934.228 66.2C935.044 66.392 935.748 66.68 936.34 67.064L934.9 69.92C934.436 69.6 933.94 69.384 933.412 69.272C932.884 69.144 932.332 69.08 931.756 69.08C930.3 69.08 929.148 69.52 928.3 70.4C927.452 71.28 927.028 72.584 927.028 74.312C927.028 74.6 927.028 74.92 927.028 75.272C927.044 75.624 927.092 75.976 927.172 76.328L926.092 75.32C926.396 74.696 926.788 74.176 927.268 73.76C927.748 73.328 928.316 73.008 928.972 72.8C929.644 72.576 930.38 72.464 931.18 72.464C932.268 72.464 933.244 72.68 934.108 73.112C934.972 73.544 935.66 74.152 936.172 74.936C936.7 75.72 936.964 76.64 936.964 77.696C936.964 78.832 936.676 79.824 936.1 80.672C935.54 81.504 934.78 82.152 933.82 82.616C932.876 83.064 931.804 83.288 930.604 83.288ZM930.388 80.384C930.932 80.384 931.412 80.288 931.828 80.096C932.26 79.888 932.596 79.592 932.836 79.208C933.076 78.824 933.196 78.384 933.196 77.888C933.196 77.12 932.932 76.512 932.404 76.064C931.892 75.6 931.204 75.368 930.34 75.368C929.764 75.368 929.26 75.48 928.828 75.704C928.396 75.912 928.052 76.208 927.796 76.592C927.556 76.96 927.436 77.392 927.436 77.888C927.436 78.368 927.556 78.8 927.796 79.184C928.036 79.552 928.372 79.848 928.804 80.072C929.236 80.28 929.764 80.384 930.388 80.384ZM945.886 83.288C944.35 83.288 943.014 82.968 941.878 82.328C940.758 81.688 939.894 80.752 939.286 79.52C938.678 78.288 938.374 76.768 938.374 74.96C938.374 73.024 938.734 71.384 939.454 70.04C940.19 68.696 941.198 67.672 942.478 66.968C943.774 66.264 945.262 65.912 946.942 65.912C947.838 65.912 948.694 66.008 949.51 66.2C950.326 66.392 951.03 66.68 951.622 67.064L950.182 69.92C949.718 69.6 949.222 69.384 948.694 69.272C948.166 69.144 947.614 69.08 947.038 69.08C945.582 69.08 944.43 69.52 943.582 70.4C942.734 71.28 942.31 72.584 942.31 74.312C942.31 74.6 942.31 74.92 942.31 75.272C942.326 75.624 942.374 75.976 942.454 76.328L941.374 75.32C941.678 74.696 942.07 74.176 942.55 73.76C943.03 73.328 943.598 73.008 944.254 72.8C944.926 72.576 945.662 72.464 946.462 72.464C947.55 72.464 948.526 72.68 949.39 73.112C950.254 73.544 950.942 74.152 951.454 74.936C951.982 75.72 952.246 76.64 952.246 77.696C952.246 78.832 951.958 79.824 951.382 80.672C950.822 81.504 950.062 82.152 949.102 82.616C948.158 83.064 947.086 83.288 945.886 83.288ZM945.67 80.384C946.214 80.384 946.694 80.288 947.11 80.096C947.542 79.888 947.878 79.592 948.118 79.208C948.358 78.824 948.478 78.384 948.478 77.888C948.478 77.12 948.214 76.512 947.686 76.064C947.174 75.6 946.486 75.368 945.622 75.368C945.046 75.368 944.542 75.48 944.11 75.704C943.678 75.912 943.334 76.208 943.078 76.592C942.838 76.96 942.718 77.392 942.718 77.888C942.718 78.368 942.838 78.8 943.078 79.184C943.318 79.552 943.654 79.848 944.086 80.072C944.518 80.28 945.046 80.384 945.67 80.384ZM961.167 83.288C959.631 83.288 958.295 82.968 957.159 82.328C956.039 81.688 955.175 80.752 954.567 79.52C953.959 78.288 953.655 76.768 953.655 74.96C953.655 73.024 954.015 71.384 954.735 70.04C955.471 68.696 956.479 67.672 957.759 66.968C959.055 66.264 960.543 65.912 962.223 65.912C963.119 65.912 963.975 66.008 964.791 66.2C965.607 66.392 966.311 66.68 966.903 67.064L965.463 69.92C964.999 69.6 964.503 69.384 963.975 69.272C963.447 69.144 962.895 69.08 962.319 69.08C960.863 69.08 959.711 69.52 958.863 70.4C958.015 71.28 957.591 72.584 957.591 74.312C957.591 74.6 957.591 74.92 957.591 75.272C957.607 75.624 957.655 75.976 957.735 76.328L956.655 75.32C956.959 74.696 957.351 74.176 957.831 73.76C958.311 73.328 958.879 73.008 959.535 72.8C960.207 72.576 960.943 72.464 961.743 72.464C962.831 72.464 963.807 72.68 964.671 73.112C965.535 73.544 966.223 74.152 966.735 74.936C967.263 75.72 967.527 76.64 967.527 77.696C967.527 78.832 967.239 79.824 966.663 80.672C966.103 81.504 965.343 82.152 964.383 82.616C963.439 83.064 962.367 83.288 961.167 83.288ZM960.951 80.384C961.495 80.384 961.975 80.288 962.391 80.096C962.823 79.888 963.159 79.592 963.399 79.208C963.639 78.824 963.759 78.384 963.759 77.888C963.759 77.12 963.495 76.512 962.967 76.064C962.455 75.6 961.767 75.368 960.903 75.368C960.327 75.368 959.823 75.48 959.391 75.704C958.959 75.912 958.615 76.208 958.359 76.592C958.119 76.96 957.999 77.392 957.999 77.888C957.999 78.368 958.119 78.8 958.359 79.184C958.599 79.552 958.935 79.848 959.367 80.072C959.799 80.28 960.327 80.384 960.951 80.384Z" fill="white"/>
<defs>
<linearGradient id="paint0_linear_537_7" x1="0" y1="60" x2="1136" y2="60" gradientUnits="userSpaceOnUse">
<stop stop-color="#F3D773"/>
<stop offset="1" stop-color="#007AB9"/>
</linearGradient>
</defs>
</svg>
